<?xml version="1.0" encoding="UTF-8"?>
<svg version="1.1" xmlns="http://www.w3.org/2000/svg" width="371" height="371">
<path d="M0 0 C1.71030492 -0.00679667 1.71030492 -0.00679667 3.45516145 -0.01373065 C7.27258831 -0.02638222 11.08987263 -0.02475374 14.90731812 -0.02310181 C17.64584897 -0.02800069 20.38436985 -0.03583569 23.12289429 -0.04345703 C29.78854118 -0.06004761 36.4541527 -0.06556574 43.11981852 -0.06668179 C48.54145613 -0.06763339 53.96308211 -0.07174929 59.38471603 -0.07808304 C74.77201924 -0.09569183 90.15929458 -0.10492273 105.54660793 -0.10342209 C106.79008623 -0.10330222 106.79008623 -0.10330222 108.0586853 -0.10317993 C109.30369069 -0.10305729 109.30369069 -0.10305729 110.5738477 -0.10293217 C124.01504357 -0.10211986 137.45612723 -0.12124469 150.89729066 -0.14945666 C164.71424465 -0.17822735 178.53114399 -0.19199459 192.34812868 -0.19026911 C200.0989413 -0.18960655 207.84963635 -0.19503972 215.60042191 -0.21662521 C222.20181016 -0.23489242 228.80302756 -0.23913932 235.40443023 -0.22560637 C238.76822582 -0.21910369 242.13142857 -0.22106006 245.49523544 -0.23631287 C271.42047885 -0.34621825 271.42047885 -0.34621825 281.61581421 4.26742554 C282.58469889 4.69138422 283.55358356 5.1153429 284.55182838 5.55214882 C298.03660289 11.79156285 305.93981885 22.95272074 311.84481812 36.0809021 C314.43801885 43.43514713 314.90591239 50.03382261 314.88323975 57.77859497 C314.88777086 58.92035824 314.89230197 60.06212151 314.89697039 61.23848367 C314.90960622 65.05513853 314.90799452 68.87165054 314.90634155 72.68832397 C314.91124216 75.42862483 314.91907666 78.16891574 314.92669678 80.90921021 C314.94327679 87.5750529 314.94880497 94.24086021 314.94992153 100.9067218 C314.95087345 106.32786734 314.95499088 111.74900126 314.96132278 117.17014313 C314.97892712 132.55660384 314.98816294 147.9430367 314.98666184 163.32950756 C314.98658192 164.15819041 314.98650201 164.98687327 314.98641968 165.84066772 C314.98633792 166.67036812 314.98625616 167.50006852 314.98617192 168.35491136 C314.98535928 181.79671918 315.00449347 195.23841489 315.03269641 208.68019029 C315.06145906 222.49830112 315.07523484 236.31635733 315.07350886 250.13449883 C315.07284612 257.8858236 315.07828745 265.63703083 315.09986496 273.38832855 C315.11812135 279.98862323 315.1223877 286.58874707 315.10884611 293.18905613 C315.1023386 296.55273485 315.10431295 299.91582029 315.11955261 303.2795105 C315.1350423 306.93607038 315.12567099 310.59177931 315.11029053 314.24832153 C315.12057765 315.297376 315.13086478 316.34643047 315.14146364 317.42727447 C314.9933794 333.43598717 307.77430163 346.23698633 296.61581421 357.26742554 C285.17815122 367.74855799 272.35026109 371.57640321 257.12483215 371.5415802 C255.98518558 371.54681688 254.84553901 371.55205356 253.67135769 371.55744892 C249.86171044 371.57242178 246.05219782 371.5731535 242.24252319 371.57382202 C239.50708886 371.58036773 236.77166607 371.58982491 234.03623962 371.5990448 C226.61032372 371.62184285 219.18443648 371.62980999 211.75849032 371.63487124 C207.11562665 371.6381347 202.4727712 371.64466114 197.82991219 371.65187263 C184.95779279 371.67143278 172.08568102 371.68784009 159.2135458 371.69074917 C158.39066905 371.69093674 157.5677923 371.69112431 156.71997989 371.69131756 C155.05203283 371.6916838 153.38408577 371.6920475 151.71613871 371.69240867 C150.88824403 371.69259148 150.06034935 371.6927743 149.20736694 371.69296265 C148.37845348 371.6931432 147.54954001 371.69332374 146.69550795 371.69350976 C133.27510244 371.69704867 119.85485765 371.72405588 106.43450784 371.76146054 C92.63333212 371.79961656 78.832236 371.81890718 65.0310064 371.81920868 C57.29129095 371.81979166 49.55176721 371.82817982 41.81210136 371.85720634 C35.21955416 371.88181824 28.62726857 371.88893757 22.03468775 371.87395882 C18.67659924 371.86682905 15.31944306 371.87024003 11.96134567 371.89036942 C-9.17043303 372.00926216 -25.45079687 370.26517854 -41.53652954 355.25961304 C-56.8728044 338.68167041 -56.97282721 320.66697113 -56.90176392 299.29476929 C-56.90499125 296.55534559 -56.9141714 293.81594867 -56.92300415 291.07653809 C-56.94071407 284.43171376 -56.93698321 277.78707101 -56.92535359 271.14223981 C-56.9162897 265.73789824 -56.91510798 260.33360726 -56.91944885 254.92926025 C-56.92006178 254.15767387 -56.92067472 253.38608749 -56.92130622 252.59111971 C-56.92258523 251.02325414 -56.92388209 249.45538859 -56.92519659 247.88752306 C-56.93658033 233.21398886 -56.92352342 218.54055492 -56.90199512 203.86703718 C-56.88412613 191.2989524 -56.88723086 178.73101546 -56.90567017 166.16293335 C-56.92711598 151.53896054 -56.9354819 136.9150754 -56.92322111 122.29108906 C-56.92194703 120.72925633 -56.92068954 119.16742358 -56.91944885 117.60559082 C-56.91883175 116.83730404 -56.91821465 116.06901727 -56.91757885 115.27744907 C-56.91413706 109.88475325 -56.91992891 104.49211342 -56.92936707 99.09942627 C-56.9406298 92.52012353 -56.93745782 85.94101147 -56.91624409 79.36173034 C-56.90579045 76.01005837 -56.90369615 72.65896379 -56.9148407 69.30725479 C-56.99301742 43.3996086 -56.99301742 43.3996086 -52.38418579 33.26742554 C-52.00602974 32.43248062 -51.62787369 31.59753571 -51.23825836 30.73728943 C-48.14681602 24.33411959 -43.32269833 19.30057856 -38.38418579 14.26742554 C-37.82988892 13.68863647 -37.27559204 13.10984741 -36.70449829 12.51351929 C-26.71638368 2.99747974 -13.28504437 -0.03880983 0 0 Z " fill="#FBFCFB" transform="translate(56.384185791015625,-0.267425537109375)"/>
<path d="M0 0 C1.41460852 0.40312678 2.83103086 0.80000155 4.25 1.1875 C5.1575 1.455625 6.065 1.72375 7 2 C5.32234985 10.54076441 2.65997819 18.72564036 0 27 C-1.6045556 26.85851011 -3.20863767 26.71164314 -4.8125 26.5625 C-6.15248047 26.44068359 -6.15248047 26.44068359 -7.51953125 26.31640625 C-10 26 -10 26 -13 25 C-24.82337054 23.98508837 -35.9790859 24.41059917 -47 29 C-47.79148437 29.30035156 -48.58296875 29.60070312 -49.3984375 29.91015625 C-63.41403895 35.59016315 -78.07642157 46.67576961 -84.25 60.875 C-84.4975 61.57625 -84.745 62.2775 -85 63 C-85.66 63 -86.32 63 -87 63 C-87.66 66.3 -88.32 69.6 -89 73 C-89.66 73 -90.32 73 -91 73 C-95.84702368 95.9368085 -93.7021125 117.10058604 -81 137 C-73.62737517 147.45451485 -64.30697917 157.32485707 -52.21484375 162.10546875 C-50.55575706 162.7755408 -48.9265199 163.52033315 -47.31640625 164.30078125 C-35.68163544 169.35628142 -19.29326999 170.82538481 -7.05859375 166.91015625 C-3.76444105 165.92990391 -2.15804019 165.63391256 1 167 C5.1389691 173.49187143 6.88191062 181.45706868 8 189 C8.66 189 9.32 189 10 189 C10 190.32 10 191.64 10 193 C-10.70646721 201.86854427 -38.73439514 198.43449625 -59.4765625 191.046875 C-62.8606076 189.64296774 -65.86657975 187.89310807 -69 186 C-69.70125 185.855625 -70.4025 185.71125 -71.125 185.5625 C-74.15605129 184.65318461 -75.81193787 182.23779081 -78 180 C-79.19546319 179.10749666 -80.40515112 178.23387319 -81.625 177.375 C-89.834905 171.29473201 -96.60526128 163.93429903 -102.5625 155.6875 C-102.97999512 155.11322266 -103.39749023 154.53894531 -103.82763672 153.94726562 C-106.2795824 150.43372619 -107.8464897 147.12146111 -109 143 C-109.66 143 -110.32 143 -111 143 C-114.56959989 136.75320019 -116.35547197 130.42559067 -118.0703125 123.48828125 C-118.84989869 120.15164329 -118.84989869 120.15164329 -120.03491211 117.78759766 C-121.29097951 114.15952339 -121.34357133 110.70594962 -121.37109375 106.91015625 C-121.38012222 106.12918076 -121.3891507 105.34820526 -121.39845276 104.54356384 C-121.41292947 102.89032804 -121.42183558 101.23703528 -121.42553711 99.58374023 C-121.43731727 97.10101154 -121.48642204 94.62086796 -121.53710938 92.13867188 C-121.64243225 81.59886155 -120.1076352 73.78928718 -116 64 C-115.58802279 62.50973164 -115.2064268 61.01022557 -114.875 59.5 C-113.99916737 55.99666949 -112.73529324 53.15507862 -111 50 C-110.34 50 -109.68 50 -109 50 C-108.76410156 48.97648437 -108.52820313 47.95296875 -108.28515625 46.8984375 C-107.13106042 42.8818205 -105.04401796 39.84824093 -102.4375 36.625 C-101.99059814 36.06192139 -101.54369629 35.49884277 -101.08325195 34.91870117 C-88.33368397 19.10635001 -72.89338246 8.00669485 -53.8125 1.1875 C-52.96872803 0.88497314 -52.12495605 0.58244629 -51.25561523 0.27075195 C-35.70539724 -5.06332557 -15.56436785 -5.43559695 0 0 Z " fill="#060606" transform="translate(250,99)"/>
<path d="M0 0 C0.7214621 0.00016113 1.44292419 0.00032227 2.18624878 0.00048828 C12.94941289 0.01720846 23.27640132 0.62614186 33.75 3.3125 C33.16523944 10.40656894 32.11766005 17.32813899 30.75 24.3125 C30.09 24.3125 29.43 24.3125 28.75 24.3125 C28.605625 25.26125 28.46125 26.21 28.3125 27.1875 C27.75 30.3125 27.75 30.3125 26.75 32.3125 C26.13992599 32.24266907 25.52985199 32.17283813 24.90129089 32.10089111 C18.95595457 31.45785194 13.09117719 31.14035597 7.11328125 31.109375 C6.23077194 31.10367493 5.34826263 31.09797485 4.43901062 31.09210205 C2.5844337 31.0827278 0.72984069 31.07614858 -1.12475586 31.07226562 C-3.91355489 31.06258314 -6.70160815 31.031496 -9.49023438 31 C-25.4585066 30.90482393 -41.72708 32.27574038 -55.73828125 40.83203125 C-58.52435124 42.47420936 -61.25574299 43.45077857 -64.3125 44.5 C-74.89361782 48.49625081 -83.33867766 55.1382455 -91.875 62.4296875 C-93.95606628 64.07948017 -95.83098767 65.24858254 -98.25 66.3125 C-98.25 66.9725 -98.25 67.6325 -98.25 68.3125 C-99.65026124 69.47369225 -101.05381331 70.63111845 -102.47265625 71.76953125 C-109.33166613 77.72405631 -116.07823285 85.77312689 -119.25 94.3125 C-119.71664062 94.7559375 -120.18328125 95.199375 -120.6640625 95.65625 C-122.54945796 97.62523442 -123.38427735 99.49405644 -124.4375 102 C-124.78167969 102.80824219 -125.12585938 103.61648437 -125.48046875 104.44921875 C-125.86138672 105.37154297 -125.86138672 105.37154297 -126.25 106.3125 C-126.91 106.3125 -127.57 106.3125 -128.25 106.3125 C-128.41943115 106.89443115 -128.5888623 107.4763623 -128.76342773 108.07592773 C-130.15892198 112.80461183 -131.63065286 117.49372654 -133.22265625 122.16015625 C-139.26799037 139.98961456 -141.38245745 155.83236119 -141.5 174.5625 C-141.50858032 175.58550705 -141.50858032 175.58550705 -141.51733398 176.62918091 C-141.64320929 197.9608711 -137.37954455 218.41306816 -127.10546875 237.18359375 C-126.25 239.3125 -126.25 239.3125 -127.25 242.3125 C-130.25 238.5625 -130.25 238.5625 -130.25 236.3125 C-130.91 236.3125 -131.57 236.3125 -132.25 236.3125 C-132.51554687 235.70921875 -132.78109375 235.1059375 -133.0546875 234.484375 C-133.40789062 233.68515625 -133.76109375 232.8859375 -134.125 232.0625 C-134.47304687 231.27359375 -134.82109375 230.4846875 -135.1796875 229.671875 C-137.01981416 225.36677417 -137.01981416 225.36677417 -139.875 221.75 C-141.25 220.3125 -141.25 220.3125 -141.25 217.3125 C-141.91 217.3125 -142.57 217.3125 -143.25 217.3125 C-143.50394531 216.3946875 -143.75789063 215.476875 -144.01953125 214.53125 C-146.15328343 206.73156178 -146.15328343 206.73156178 -148.875 199.125 C-150.395048 195.27968938 -151.06978315 191.38909082 -151.72265625 187.31640625 C-152.22306753 184.17023039 -152.22306753 184.17023039 -153.29296875 180.609375 C-154.85070465 173.67784708 -154.54705349 166.55065932 -154.51074219 159.48461914 C-154.50006998 157.01618623 -154.51065418 154.54848822 -154.5234375 152.08007812 C-154.53742638 139.00738467 -152.79029717 127.14103955 -149.125 114.5625 C-148.82368164 113.52480469 -148.52236328 112.48710937 -148.21191406 111.41796875 C-145.88825134 103.74060615 -142.9125377 96.76305014 -139.046875 89.75 C-137.7241879 87.21964207 -136.76798835 85.05026608 -135.859375 82.390625 C-134.18947701 77.77005507 -131.61718343 74.02349306 -128.75 70.0625 C-128.22462646 69.32741211 -127.69925293 68.59232422 -127.15795898 67.83496094 C-121.58988834 60.18188585 -115.33447624 53.39086175 -108.640625 46.70703125 C-107.26198422 45.32613779 -105.89735289 43.93026013 -104.57421875 42.49609375 C-91.55048977 28.60204397 -72.92272533 15.69487431 -54.25 11.3125 C-53.280625 10.920625 -52.31125 10.52875 -51.3125 10.125 C-49.25 9.3125 -49.25 9.3125 -46.25 9.3125 C-46.25 8.6525 -46.25 7.9925 -46.25 7.3125 C-43.69061812 6.50943646 -41.12813035 5.72016016 -38.5625 4.9375 C-37.86060547 4.71578125 -37.15871094 4.4940625 -36.43554688 4.265625 C-24.44579192 0.64205461 -12.43607442 -0.05695559 0 0 Z " fill="#0B0B0B" transform="translate(226.25,46.6875)"/>
<path d="M0 0 C0.33 0 0.66 0 1 0 C0.99887207 0.82798096 0.99774414 1.65596191 0.99658203 2.5090332 C1.1164617 40.31543226 8.46620368 74.52191688 35 103 C35.9296768 104.04326759 36.8567369 105.0888725 37.78125 106.13671875 C48.97619558 118.74208211 61.90616866 130.78532974 77.828125 137.0703125 C80.51540188 138.22062167 82.9691313 139.66380785 85.5 141.125 C89.56843698 143.39218765 93.13105257 144.80084438 97.734375 145.48046875 C100 146 100 146 103.28125 147.484375 C107.0525586 149.15485709 110.63796238 149.64398234 114.75 150.0625 C116.15258504 150.21788938 117.55493073 150.3754541 118.95703125 150.53515625 C119.63975098 150.61137207 120.3224707 150.68758789 121.02587891 150.76611328 C123.84405162 151.10000018 126.63934982 151.52815507 129.4375 152 C130.30246094 152.144375 131.16742188 152.28875 132.05859375 152.4375 C132.69925781 152.623125 133.33992187 152.80875 134 153 C134.33 153.66 134.66 154.32 135 155 C131.68751922 155.02945031 128.37507289 155.04694801 125.0625 155.0625 C124.13630859 155.07087891 123.21011719 155.07925781 122.25585938 155.08789062 C116.41908331 155.10837054 110.78122477 154.83422315 105 154 C104.67 153.67 104.34 153.34 104 153 C102.80375 152.938125 101.6075 152.87625 100.375 152.8125 C94.46454783 152.22239146 89.32518299 149.88855756 83.9140625 147.609375 C80.22737792 146.06151636 76.47880935 144.77202972 72.6875 143.5 C66.56088041 141.3295832 61.38218465 138.61563938 56 135 C54.99453125 134.35289062 53.9890625 133.70578125 52.953125 133.0390625 C40.47708257 124.77144586 30.04352578 114.95775966 21 103 C20.45214844 102.28328125 19.90429688 101.5665625 19.33984375 100.828125 C16 96.32538301 16 96.32538301 16 94 C15.34 94 14.68 94 14 94 C13.67 92.02 13.34 90.04 13 88 C12.34 88 11.68 88 11 88 C10.608125 87.05125 10.21625 86.1025 9.8125 85.125 C8.52099673 82.07680746 7.0470542 79.17584874 5.5 76.25 C2.84854656 70.9550316 1.27222546 65.77173472 0 60 C-0.41958984 58.18435547 -0.41958984 58.18435547 -0.84765625 56.33203125 C-4.546358 39.02413955 -5.67703558 17.03110674 0 0 Z " fill="#171717" transform="translate(113,180)"/>
<path d="M0 0 C0.33 0 0.66 0 1 0 C1.01458252 0.90129639 1.02916504 1.80259277 1.04418945 2.73120117 C1.10598511 6.14044329 1.18026194 9.54897448 1.26245117 12.95776367 C1.29529237 14.42087906 1.3234448 15.88410878 1.34643555 17.34741211 C1.48598788 26.00262582 2.09532309 33.93819446 4.36791992 42.35668945 C5 45 5 45 5 49 C4.34 49 3.68 49 3 49 C2.87882812 48.38511719 2.75765625 47.77023438 2.6328125 47.13671875 C2.46523437 46.32847656 2.29765625 45.52023438 2.125 44.6875 C1.96257812 43.88699219 1.80015625 43.08648437 1.6328125 42.26171875 C1.05521001 39.74698882 1.05521001 39.74698882 -1 37 C-1.33 38.98 -1.66 40.96 -2 43 C-2.33 43 -2.66 43 -3 43 C-3.55716627 10.6714988 -3.55716627 10.6714988 0 0 Z " fill="#565656" transform="translate(113,180)"/>
<path d="M0 0 C9.80224389 0.43800473 19.52439745 1.32016112 29 4 C29.495 4.99 29.495 4.99 30 6 C26.68751922 6.02945031 23.37507289 6.04694801 20.0625 6.0625 C18.67321289 6.07506836 18.67321289 6.07506836 17.25585938 6.08789062 C11.41908331 6.10837054 5.78122477 5.83422315 0 5 C-0.33 4.67 -0.66 4.34 -1 4 C-3.28684338 3.7180604 -5.57363273 3.55222995 -7.87109375 3.37890625 C-10 3 -10 3 -12 1 C-8.04 1 -4.08 1 0 1 C0 0.67 0 0.34 0 0 Z " fill="#696868" transform="translate(218,329)"/>
<path d="M0 0 C2 1 2 1 3 3.765625 C3.495 5.49039063 3.495 5.49039063 4 7.25 C5.16214222 11.26302236 6.37802425 15.14780758 8 19 C8.66 19 9.32 19 10 19 C9.67 16.69 9.34 14.38 9 12 C11.00616046 15.0092407 12.0733987 17.67616127 13.3125 21.0625 C15.26009011 26.26576313 17.48573919 31.12100296 20.1796875 35.9765625 C21 38 21 38 20 41 C17 37.25 17 37.25 17 35 C16.34 35 15.68 35 15 35 C14.73445313 34.39671875 14.46890625 33.7934375 14.1953125 33.171875 C13.66550781 31.97304688 13.66550781 31.97304688 13.125 30.75 C12.77695313 29.96109375 12.42890625 29.1721875 12.0703125 28.359375 C10.23018584 24.05427417 10.23018584 24.05427417 7.375 20.4375 C6 19 6 19 6 16 C5.34 16 4.68 16 4 16 C2.68 10.72 1.36 5.44 0 0 Z " fill="#626262" transform="translate(79,248)"/>
<path d="M0 0 C0.66 0.33 1.32 0.66 2 1 C-13.96163278 19.07475674 -13.96163278 19.07475674 -21 23 C-16.89270764 13.65163146 -7.55588024 6.53055202 0 0 Z " fill="#3D3E3E" transform="translate(168,115)"/>
<path d="M0 0 C0.66 0.33 1.32 0.66 2 1 C-5.25086738 9.17863585 -12.82136415 16.74913262 -21 24 C-21 20.56655118 -20.66795375 20.26243281 -18.4453125 17.86328125 C-17.91292969 17.28642578 -17.38054687 16.70957031 -16.83203125 16.11523438 C-16.26871094 15.52033203 -15.70539063 14.92542969 -15.125 14.3125 C-14.56941406 13.70599609 -14.01382813 13.09949219 -13.44140625 12.47460938 C-12.00724118 10.93849763 -10.50777865 9.46392359 -9 8 C-8.34 8 -7.68 8 -7 8 C-7 7.34 -7 6.68 -7 6 C-5.46875 4.4921875 -5.46875 4.4921875 -3.5 2.875 C-2.8503125 2.33617188 -2.200625 1.79734375 -1.53125 1.2421875 C-1.0259375 0.83226563 -0.520625 0.42234375 0 0 Z " fill="#BBBBBA" transform="translate(135,107)"/>
<path d="M0 0 C0.33 0 0.66 0 1 0 C0.9278125 0.87914062 0.855625 1.75828125 0.78125 2.6640625 C-0.26745582 17.4333361 -0.09452756 32.20280194 0 47 C-2.5149666 43.22755011 -2.28853798 40.22800167 -2.265625 35.859375 C-2.26753845 35.0589679 -2.2694519 34.25856079 -2.27142334 33.43389893 C-2.2727842 31.73929531 -2.26909464 30.04468124 -2.26074219 28.35009766 C-2.25009717 25.77352013 -2.26061146 23.19764878 -2.2734375 20.62109375 C-2.27211479 18.97135264 -2.26955009 17.32161197 -2.265625 15.671875 C-2.26967346 14.90808533 -2.27372192 14.14429565 -2.27789307 13.35736084 C-2.23637006 8.5456005 -1.51949952 4.57057006 0 0 Z " fill="#535353" transform="translate(131,170)"/>
<path d="M0 0 C0.66 0.33 1.32 0.66 2 1 C-15.32002618 20.07395288 -15.32002618 20.07395288 -21 23 C-19.56246045 19.68997304 -17.77516456 17.56110536 -15.1875 15.0625 C-14.47207031 14.36511719 -13.75664063 13.66773437 -13.01953125 12.94921875 C-12.01986328 11.98435547 -12.01986328 11.98435547 -11 11 C-10.13375 10.13375 -9.2675 9.2675 -8.375 8.375 C-5.58333333 5.58333333 -2.79166667 2.79166667 0 0 Z " fill="#373738" transform="translate(128,83)"/>
<path d="M0 0 C5.48151838 -0.33560317 10.55706592 0.33055904 15.9375 1.375 C16.61240479 1.50108643 17.28730957 1.62717285 17.98266602 1.75708008 C19.67093739 2.10126156 21.33863614 2.54328207 23 3 C23.33 3.66 23.66 4.32 24 5 C17.07 5 10.14 5 3 5 C3 4.67 3 4.34 3 4 C6.465 3.505 6.465 3.505 10 3 C6.7 2.34 3.4 1.68 0 1 C0 0.67 0 0.34 0 0 Z " fill="#A3A3A2" transform="translate(224,330)"/>
<path d="M0 0 C0.66 0 1.32 0 2 0 C2 11.55 2 23.1 2 35 C1.67 35 1.34 35 1 35 C0.67 25.43 0.34 15.86 0 6 C-0.33 8.64 -0.66 11.28 -1 14 C-1.33 14 -1.66 14 -2 14 C-2.3690205 4.58997722 -2.3690205 4.58997722 0 0 Z " fill="#E3E3E3" transform="translate(113,177)"/>
<path d="M0 0 C6.5705166 -0.24794402 12.56971459 0.67611771 19 2 C19 2.33 19 2.66 19 3 C16.95863605 3.05451714 14.91684144 3.09302485 12.875 3.125 C11.16957031 3.15980469 11.16957031 3.15980469 9.4296875 3.1953125 C5.94242233 2.99672109 3.2446138 2.2524801 0 1 C0 0.67 0 0.34 0 0 Z " fill="#2E2D2D" transform="translate(220,331)"/>
<path d="M0 0 C2.31966166 2.84685749 3.91581154 5.4763875 5 9 C4.67 9.99 4.34 10.98 4 12 C1 8.25 1 8.25 1 6 C0.34 6 -0.32 6 -1 6 C-1.625 4.125 -1.625 4.125 -2 2 C-1.34 1.34 -0.68 0.68 0 0 Z " fill="#8B8C8B" transform="translate(95,277)"/>
<path d="M0 0 C7.75 0.875 7.75 0.875 10 2 C9.67 4.64 9.34 7.28 9 10 C8.06576355 6.98968256 7.95550089 6.13349732 9 3 C8.071875 3.061875 7.14375 3.12375 6.1875 3.1875 C3 3 3 3 1.125 1.5 C0.75375 1.005 0.3825 0.51 0 0 Z " fill="#878685" transform="translate(248,98)"/>
<path d="M0 0 C0.66 0 1.32 0 2 0 C2 2.31 2 4.62 2 7 C1.34 6.67 0.68 6.34 0 6 C-0.33 8.64 -0.66 11.28 -1 14 C-1.33 14 -1.66 14 -2 14 C-2.3690205 4.58997722 -2.3690205 4.58997722 0 0 Z " fill="#C8C8C9" transform="translate(113,177)"/>
<path d="M0 0 C2.02350324 3.03525486 2.32124018 4.19426202 2.625 7.6875 C2.69976562 8.49574219 2.77453125 9.30398438 2.8515625 10.13671875 C2.90054688 10.75160156 2.94953125 11.36648438 3 12 C1 10.625 1 10.625 -1 9 C-1 8.34 -1 7.68 -1 7 C-0.34 7 0.32 7 1 7 C0.67 4.69 0.34 2.38 0 0 Z " fill="#2C2C2C" transform="translate(88,260)"/>
<path d="M0 0 C0 0.66 0 1.32 0 2 C-4.15267176 5.11450382 -4.15267176 5.11450382 -7.3125 4.6875 C-7.869375 4.460625 -8.42625 4.23375 -9 4 C-2.25 0 -2.25 0 0 0 Z " fill="#5E5F60" transform="translate(162,62)"/>
</svg>
